HIERARCHY
ROOT SimulationBone
{
	OFFSET 0.000000 0.000000 0.000000
	CHANNELS 6 Xposition Yposition Zposition Zrotation Yrotation Xrotation 
	JOINT Hips
	{
		OFFSET 0.000000 0.000000 0.000000
		CHANNELS 6 Xposition Yposition Zposition Zrotation Yrotation Xrotation 
		JOINT RightUpLeg
		{
			OFFSET 0.103457 1.857824 10.548504
			CHANNELS 3 Zrotation Yrotation Xrotation
			JOINT RightLeg
			{
				OFFSET 43.500000 -0.000038 -0.000017
				CHANNELS 3 Zrotation Yrotation Xrotation
				JOINT RightFoot
				{
					OFFSET 42.372200 0.000011 0.000019
					CHANNELS 3 Zrotation Yrotation Xrotation
					JOINT RightToe
					{
						OFFSET 17.300011 0.000002 -0.000008
						CHANNELS 3 Zrotation Yrotation Xrotation
						End Site
						{
							OFFSET 0.000000 0.000000 0.000000
						}
					}
				}
			}
		}
		JOINT LeftUpLeg
		{
			OFFSET 0.103457 1.857822 -10.548492
			CHANNELS 3 Zrotation Yrotation Xrotation
			JOINT LeftLeg
			{
				OFFSET 43.500038 -0.000027 0.000036
				CHANNELS 3 Zrotation Yrotation Xrotation
				JOINT LeftFoot
				{
					OFFSET 42.372261 0.000015 0.000010
					CHANNELS 3 Zrotation Yrotation Xrotation
					JOINT LeftToe
					{
						OFFSET 17.299988 -0.000006 0.000008
						CHANNELS 3 Zrotation Yrotation Xrotation
						End Site
						{
							OFFSET 0.000000 0.000000 0.000000
						}
					}
				}
			}
		}
		JOINT Spine
		{
			OFFSET 6.901965 -2.603737 0.000006
			CHANNELS 3 Zrotation Yrotation Xrotation
			JOINT Spine1
			{
				OFFSET 12.588104 -0.000005 0.000007
				CHANNELS 3 Zrotation Yrotation Xrotation
				JOINT Spine2
				{
					OFFSET 12.343202 0.000026 -0.000008
					CHANNELS 3 Zrotation Yrotation Xrotation
					JOINT Neck
					{
						OFFSET 25.832890 -0.000029 -0.000007
						CHANNELS 3 Zrotation Yrotation Xrotation
						JOINT Head
						{
							OFFSET 11.766619 0.000021 0.000012
							CHANNELS 3 Zrotation Yrotation Xrotation
							End Site
							{
								OFFSET 0.000000 0.000000 0.000000
							}
						}
					}
					JOINT RightShoulder
					{
						OFFSET 19.745909 -1.480377 6.000106
						CHANNELS 3 Zrotation Yrotation Xrotation
						JOINT RightArm
						{
							OFFSET 11.284110 -0.000009 -0.000020
							CHANNELS 3 Zrotation Yrotation Xrotation
							JOINT RightForeArm
							{
								OFFSET 33.000053 0.000014 0.000021
								CHANNELS 3 Zrotation Yrotation Xrotation
								JOINT RightHand
								{
									OFFSET 25.200008 0.000006 -0.000004
									CHANNELS 3 Zrotation Yrotation Xrotation
									End Site
									{
										OFFSET 0.000000 0.000000 0.000000
									}
								}
							}
						}
					}
					JOINT LeftShoulder
					{
						OFFSET 19.746101 -1.480381 -6.000081
						CHANNELS 3 Zrotation Yrotation Xrotation
						JOINT LeftArm
						{
							OFFSET 11.284131 -0.000022 0.000003
							CHANNELS 3 Zrotation Yrotation Xrotation
							JOINT LeftForeArm
							{
								OFFSET 33.000095 0.000014 0.000005
								CHANNELS 3 Zrotation Yrotation Xrotation
								JOINT LeftHand
								{
									OFFSET 25.199774 0.000153 0.000423
									CHANNELS 3 Zrotation Yrotation Xrotation
									End Site
									{
										OFFSET 0.000000 0.000000 0.000000
									}
								}
							}
						}
					}
				}
			}
		}
	}
}
MOTION
Frames: 15
Frame Time: 0.033333
285.219890 0.000000 549.463744 180.000000 -52.945618 180.000000 -1.463223 70.633583 0.842907 100.225965 -7.891264 -179.506032 148.603114 -16.109689 -159.095829 -45.767312 2.108259 7.404821 80.776433 -13.303331 -31.813840 21.454562 0.003104 0.000018 142.085625 5.303898 -160.388988 -100.212023 -0.650588 -8.074504 72.051932 2.133381 -10.792513 21.454548 -0.003092 0.000002 14.414681 -0.711023 2.508750 18.779998 -1.820021 4.869028 18.462973 -1.790753 4.879875 18.750172 -13.168204 -22.002845 -37.990639 27.467220 -39.799075 168.552868 -78.570507 10.164999 -5.792532 34.925155 17.942960 -74.693685 -15.594432 2.767249 -5.259539 -11.574328 19.448252 -150.165561 86.302179 31.655027 8.739294 -57.431687 -20.391641 -81.506116 9.751859 -2.613800 -3.778821 5.490524 -19.915343 
281.072574 0.000000 553.735346 180.000000 -49.097008 180.000000 -1.704611 68.395576 -1.772746 100.155693 -7.288280 178.482665 152.867570 -18.475406 -162.702797 -53.898269 3.149873 6.688450 98.052133 -7.893844 -33.863152 21.454557 0.003110 0.000018 135.127137 9.384511 -164.190958 -110.582894 -1.311058 -11.894526 64.722661 8.990671 0.800394 21.454557 -0.003093 -0.000003 14.542564 -0.604163 2.407254 19.041326 -1.596420 4.682348 18.724265 -1.568285 4.691861 17.167559 -12.655020 -20.404709 -38.496623 26.215082 -37.698594 170.540207 -75.863177 8.233499 -8.369042 37.571723 19.184251 -70.428997 -18.136567 2.764993 -5.257524 -15.416799 20.193442 -166.408352 85.914764 15.319853 4.698089 -58.779823 -18.770772 -79.786302 10.724506 -2.607235 -0.742762 6.584935 -12.193338 
276.321688 0.000000 557.704345 180.000000 -45.199826 180.000000 -2.842900 66.332336 -4.052605 99.947378 -7.662312 -179.965701 153.951945 -19.976596 -166.438200 -62.042563 4.070013 8.934408 106.866308 -6.769359 -32.670478 21.454558 0.003114 0.000018 128.719027 14.452803 -166.570979 -114.940910 -1.641640 -11.352150 72.995434 9.426439 3.907971 21.454548 -0.003094 0.000004 14.927414 -0.475373 1.428522 19.828690 -1.188541 2.754392 19.510907 -1.172029 2.761498 13.230301 -11.775634 -18.537979 -38.535080 25.206209 -35.461137 169.352683 -73.629084 9.524604 -12.319066 39.190154 17.297678 -66.783862 -20.490521 2.779229 -6.488295 -18.410712 20.101832 -175.190623 85.472946 6.475823 -0.390361 -61.363164 -17.778933 -74.781255 14.137783 -2.631646 -0.506634 11.942681 -13.400777 
271.001548 0.000000 561.381883 180.000000 -41.303470 180.000000 -4.327645 65.510643 -5.378129 98.291117 -7.212777 -178.062260 156.501982 -22.886803 -169.603296 -64.857619 4.251999 9.875835 112.411595 -5.806513 -32.169522 21.454558 0.003106 0.000018 121.721225 17.133801 -167.058559 -112.155593 -1.414450 -7.029676 77.762639 5.350013 1.087476 21.454555 -0.003093 0.000001 15.019552 -0.163712 0.974691 20.022276 -0.493643 1.906247 19.704367 -0.482252 1.909181 9.513353 -9.827564 -17.728359 -38.581505 23.102802 -33.517190 156.476000 -73.515498 22.703919 -15.636480 41.565451 12.935732 -67.612425 -20.948315 2.846306 -6.984522 -19.210870 22.941781 -162.228563 83.452248 19.551739 -3.814333 -61.436821 -22.135506 -67.707153 18.763404 -2.660776 0.527342 17.964560 -10.504152 
265.146473 0.000000 564.779099 180.000000 -37.457909 180.000000 -6.014312 65.371117 -6.177575 96.021601 -7.679343 -176.846191 161.615335 -24.259592 -172.725635 -63.725610 3.907290 9.412734 115.584914 -4.496949 -32.597310 21.454558 0.003105 0.000018 115.700181 19.148495 -168.541516 -104.714703 -0.542870 -2.093662 82.583448 1.595089 0.139903 21.454546 -0.003091 0.000001 14.929895 0.058105 0.350346 19.847101 0.055272 0.705428 19.529044 0.059401 0.705067 6.715216 -11.546333 -16.530748 -39.368309 23.083493 -32.887289 158.108497 -74.236513 20.998597 -20.133115 42.876745 8.011159 -73.296877 -18.635189 2.923021 -10.851112 -15.910207 29.209000 -163.464131 83.487110 18.303075 0.412258 -60.211949 -27.601938 -64.788941 17.433387 -2.449899 4.009014 14.334245 -6.277794 
258.790778 0.000000 567.907134 180.000000 -33.710314 180.000000 -7.490293 66.244171 -6.367621 92.502832 -8.252206 -176.635350 168.753320 -24.629594 -177.829822 -58.102186 3.976592 7.948374 115.199296 -3.461988 -34.217451 21.454562 0.003102 0.000016 110.771755 18.611695 -170.787077 -93.624934 0.650522 3.364530 84.019824 -2.764786 -2.518688 21.454553 -0.003094 0.000000 14.420039 0.193638 0.135628 18.827768 0.362637 0.300966 18.509678 0.364315 0.298762 5.073501 -12.034814 -15.308448 -39.512842 21.572941 -30.944432 159.033592 -75.011214 20.015034 -21.948929 44.006373 4.073144 -81.307870 -14.207196 2.958260 -11.551475 -15.376830 31.833828 -155.518558 84.034843 26.318735 7.391040 -57.490051 -38.695054 -64.530459 16.010346 -2.341252 2.940216 13.076814 -4.226700 
251.968781 0.000000 570.777128 180.000000 -30.102146 180.000000 -8.243919 67.771629 -5.985971 89.413244 -8.356503 -176.732509 178.592822 -24.219403 178.011805 -48.325030 3.069728 5.544451 110.624196 -3.106876 -35.523500 21.454558 0.003100 0.000015 109.957870 17.194702 -172.751043 -80.981796 2.384094 5.557778 84.592480 -4.406488 -2.964780 21.454553 -0.003091 0.000001 14.041110 0.458324 -0.130878 18.069213 0.931498 -0.188512 17.751067 0.930200 -0.194140 3.109329 -13.447550 -14.071580 -39.527428 20.915883 -29.654062 162.117777 -76.290092 16.808911 -20.981060 45.924375 0.431023 -88.412947 -9.294975 2.927024 -12.543806 -14.575946 32.014357 -163.764331 85.500240 17.984049 12.205359 -54.420451 -47.505123 -65.050080 15.438540 -2.322284 1.914292 9.316734 -6.701967 
244.714799 0.000000 573.400222 180.000000 -26.667104 180.000000 -8.432094 69.801727 -5.182488 86.007785 -8.151645 -176.437895 -173.242598 -22.449205 176.635153 -38.943082 2.430815 1.708668 98.658162 -3.987333 -32.765394 21.454558 0.003111 0.000017 111.576782 15.401989 -173.972991 -70.002315 3.421466 4.772863 84.814175 -3.898635 -2.918430 21.454553 -0.003092 -0.000001 13.462036 0.782359 -0.575361 16.905509 1.640445 -1.030154 16.587342 1.634060 -1.040055 2.478027 -14.607691 -12.729032 -39.478418 19.239690 -27.465753 165.293788 -75.935700 13.585823 -16.573886 46.566488 1.516794 -91.217532 -6.543343 2.858994 -11.991317 -17.338261 30.216706 167.164181 86.390876 -11.257292 13.195569 -52.542644 -50.851288 -64.283917 15.317363 -2.283847 1.050783 4.674244 -6.914792 
237.063150 0.000000 575.787556 180.000000 -23.430130 180.000000 -8.672024 72.067253 -4.377350 82.947892 -7.958387 -176.173477 -170.122267 -19.498201 179.622637 -36.380518 2.022032 -3.388595 82.340936 -4.275304 -28.906177 21.454565 0.003103 0.000016 113.265211 13.729100 -172.705418 -69.670204 4.765808 4.383861 84.985216 -5.287964 -11.078822 21.454555 -0.003091 0.000000 12.989514 1.049898 -0.877082 15.953625 2.210786 -1.601031 15.635413 2.200944 -1.614362 0.099851 -16.046951 -11.640503 -36.975065 18.229988 -25.629086 166.252993 -75.677991 12.617363 -12.369559 47.095913 6.092511 -89.726706 -7.563506 2.863907 -9.443669 -16.654450 28.197261 165.529812 86.052310 -12.913585 7.033562 -52.107940 -48.778069 -61.414950 16.473592 -2.252371 1.051295 3.809075 -4.010496 
229.048150 0.000000 577.950269 180.000000 -20.407403 180.000000 -9.380647 73.673019 -3.779728 80.957857 -7.589828 -176.410617 -172.599864 -16.889693 178.405019 -45.527883 4.202207 -3.653778 74.154674 -4.266531 -22.233932 21.454558 0.003114 0.000016 116.482183 11.527206 -168.767294 -71.884135 2.355433 3.276399 91.011185 -4.103541 -12.777772 21.454548 -0.003092 0.000000 12.824412 1.301101 -0.880174 15.621628 2.709190 -1.576712 15.303264 2.699481 -1.593057 -0.156612 -16.089868 -11.430903 -36.640174 16.669620 -24.467858 162.840384 -75.173315 16.122325 -8.431775 47.727791 12.632530 -84.403933 -11.062929 2.872887 -7.769505 -17.603559 26.307042 174.703180 84.574653 -3.725531 -2.502134 -50.871000 -43.487186 -57.116610 18.101277 -2.203317 1.108385 5.994846 -2.232896 
220.704116 0.000000 579.899504 180.000000 -17.607106 180.000000 -10.592600 75.062012 -3.445153 79.484050 -5.738725 -178.341860 -177.783445 -15.801194 179.736715 -61.294124 3.141188 0.248511 78.143060 -5.138950 -18.059406 21.454560 0.003109 0.000015 120.540654 7.373993 -166.284179 -72.854199 1.152950 2.504196 95.762783 -2.993912 -12.611292 21.454553 -0.003092 0.000000 12.887770 1.711362 -0.357759 15.762594 3.455452 -0.478826 15.443864 3.452363 -0.499720 -0.515714 -16.988762 -11.350789 -37.974711 15.759145 -24.361864 163.343223 -74.648497 15.632005 -6.270407 48.869604 20.261579 -76.114050 -15.607969 2.829612 -3.946107 -19.501063 20.157007 172.216362 83.077312 -6.278206 -11.051159 -48.211457 -35.291953 -54.486939 18.428450 -2.131390 3.058203 8.640778 -3.084623 
212.065367 0.000000 581.646399 180.000000 -15.030657 180.000000 -11.926067 76.326912 -3.348496 77.744033 -3.730716 179.716205 174.325839 -14.308700 179.889834 -76.949697 2.659320 0.984146 80.878189 -5.717834 -20.097615 21.454553 0.003109 0.000016 125.042855 4.266602 -164.685123 -72.790391 1.426845 1.256840 99.829369 -1.754482 -12.969139 21.454551 -0.003092 0.000000 12.821970 2.086669 0.219982 15.654290 4.124231 0.721263 15.335317 4.128375 0.696293 -1.424704 -18.429112 -10.777799 -38.071334 15.982709 -24.323274 166.597821 -74.278628 12.320317 -4.893848 50.556456 28.771926 -65.398617 -18.987350 2.616534 -0.180484 -20.609582 11.552491 159.385633 82.413254 -19.268949 -15.883456 -45.812702 -26.465667 -55.052349 18.158504 -2.133052 3.011282 12.167924 -4.741467 
203.166219 0.000000 583.202094 180.000000 -12.674134 180.000000 -13.015439 78.233253 -3.111464 75.448540 -2.714129 177.896140 164.338668 -12.216705 179.004177 -88.649278 2.827239 0.189577 83.485621 -4.098334 -17.484340 21.454557 0.003106 0.000017 130.511446 2.041504 -163.657152 -70.279122 1.292635 -0.415274 102.648311 -0.368460 -13.412819 21.454548 -0.003092 0.000000 12.456595 2.075088 0.786383 14.942041 4.031037 1.835764 14.623261 4.041913 1.811346 -2.176458 -18.036252 -10.597008 -36.422694 15.544621 -23.554160 169.447131 -74.173518 9.408809 -0.869037 52.254202 38.269936 -56.128671 -20.155752 2.339000 3.593363 -23.138570 5.186800 155.544362 82.884510 -23.123293 -18.600383 -45.410940 -17.594718 -60.679667 17.620251 -2.303053 -0.026865 18.241624 -10.178051 
194.040988 0.000000 584.577732 180.000000 -10.529681 180.000000 -13.668314 80.308640 -2.763804 74.365605 -2.275838 176.586961 154.344640 -9.688295 178.189445 -95.278762 3.235673 -2.026566 86.412391 -1.375848 -13.851309 21.454562 0.003109 0.000016 138.407145 0.434005 -164.922239 -65.457330 2.126231 -1.598390 104.393308 0.580234 -13.466940 21.454550 -0.003092 0.000000 12.258959 1.840719 1.279400 14.554614 3.505618 2.781824 14.236267 3.522211 2.760589 -2.674816 -17.052218 -10.649022 -35.832101 14.908280 -22.997617 171.658514 -74.371601 7.138600 6.880827 52.845648 47.221046 -52.806112 -19.388752 2.168376 2.545817 -20.153392 7.992879 157.274518 83.725989 -21.333666 -18.844263 -45.577149 -9.997978 -70.915464 15.489081 -2.563675 -3.405867 23.140242 -13.828268 
184.723993 0.000000 585.784451 180.000000 -8.586746 180.000000 -13.994078 82.910332 -2.149857 73.755829 -2.254545 175.848662 145.141998 -7.134796 178.265752 -95.088821 3.036916 -4.436009 87.811132 0.828285 -12.032542 21.454551 0.003108 0.000019 147.661791 -1.487306 -168.096911 -57.568844 2.370706 -1.663638 102.920685 0.498698 -12.340259 21.454553 -0.003092 0.000000 12.044246 1.382711 1.619485 14.117241 2.557217 3.396582 13.799389 2.577535 3.381082 -2.619108 -16.175799 -10.530131 -35.452367 15.967592 -23.213431 173.938198 -75.333401 4.777587 14.716925 52.269457 55.459610 -52.468335 -18.102143 2.070035 1.455280 -17.583350 13.064788 160.468382 84.473662 -18.077498 -17.660907 -46.596206 -1.586724 -81.939054 10.343990 -2.674168 -9.216761 24.575314 -19.905678 
